<svg width="24" height="25" viewBox="0 0 24 25" fill="none" xmlns="http://www.w3.org/2000/svg">
<g clip-path="url(#clip0_49_1097)">
<path d="M9.975 9.47501C10.4645 8.98551 10.7978 8.36187 10.9328 7.68294C11.0678 7.00402 10.9985 6.3003 10.7335 5.66078C10.4686 5.02126 10.02 4.47466 9.44446 4.09009C8.8689 3.70552 8.19222 3.50026 7.5 3.50026C6.80778 3.50026 6.13111 3.70552 5.55554 4.09009C4.97998 4.47466 4.53138 5.02126 4.26646 5.66078C4.00154 6.3003 3.93221 7.00402 4.06723 7.68294C4.20225 8.36187 4.53555 8.98551 5.025 9.47501L7.5 11.95L9.975 9.47501ZM7.5 14.778L3.61 10.89C2.84107 10.1207 2.3175 9.1407 2.10549 8.07388C1.89349 7.00705 2.00255 5.90132 2.41891 4.89648C2.83527 3.89163 3.54022 3.0328 4.44463 2.42857C5.34905 1.82434 6.41232 1.50183 7.5 1.50183C8.58769 1.50183 9.65096 1.82434 10.5554 2.42857C11.4598 3.0328 12.1647 3.89163 12.5811 4.89648C12.9975 5.90132 13.1065 7.00705 12.8945 8.07388C12.6825 9.1407 12.1589 10.1207 11.39 10.89L7.5 14.78V14.778ZM7.5 8.50001C7.10218 8.50001 6.72065 8.34197 6.43934 8.06067C6.15804 7.77936 6 7.39783 6 7.00001C6 6.60218 6.15804 6.22065 6.43934 5.93935C6.72065 5.65804 7.10218 5.50001 7.5 5.50001C7.89783 5.50001 8.27936 5.65804 8.56066 5.93935C8.84197 6.22065 9 6.60218 9 7.00001C9 7.39783 8.84197 7.77936 8.56066 8.06067C8.27936 8.34197 7.89783 8.50001 7.5 8.50001ZM16.5 20.95L18.975 18.475C19.4645 17.9855 19.7978 17.3619 19.9328 16.6829C20.0678 16.004 19.9985 15.3003 19.7335 14.6608C19.4686 14.0213 19.02 13.4747 18.4445 13.0901C17.8689 12.7055 17.1922 12.5003 16.5 12.5003C15.8078 12.5003 15.1311 12.7055 14.5555 13.0901C13.98 13.4747 13.5314 14.0213 13.2665 14.6608C13.0015 15.3003 12.9322 16.004 13.0672 16.6829C13.2022 17.3619 13.5356 17.9855 14.025 18.475L16.5 20.95ZM20.39 19.89L16.5 23.778L12.61 19.889C11.8411 19.1197 11.3175 18.1397 11.1055 17.0729C10.8935 16.0061 11.0026 14.9003 11.4189 13.8955C11.8353 12.8906 12.5402 12.0318 13.4446 11.4276C14.349 10.8233 15.4123 10.5008 16.5 10.5008C17.5877 10.5008 18.651 10.8233 19.5554 11.4276C20.4598 12.0318 21.1647 12.8906 21.5811 13.8955C21.9974 14.9003 22.1065 16.0061 21.8945 17.0729C21.6825 18.1397 21.1589 19.1197 20.39 19.889V19.89ZM16.5 17.5C16.1022 17.5 15.7206 17.342 15.4393 17.0607C15.158 16.7794 15 16.3978 15 16C15 15.6022 15.158 15.2206 15.4393 14.9393C15.7206 14.658 16.1022 14.5 16.5 14.5C16.8978 14.5 17.2794 14.658 17.5607 14.9393C17.842 15.2206 18 15.6022 18 16C18 16.3978 17.842 16.7794 17.5607 17.0607C17.2794 17.342 16.8978 17.5 16.5 17.5Z" fill="#03053D"/>
</g>
<defs>
<clipPath id="clip0_49_1097">
<rect width="24" height="24" fill="white" transform="translate(0 0.5)"/>
</clipPath>
</defs>
</svg>
